<?xml version="1.0" standalone="no"?>
<!DOCTYPE svg PUBLIC "-//W3C//DTD SVG 1.1//EN" "http://www.w3.org/Graphics/SVG/1.1/DTD/svg11.dtd" >
<svg xmlns="http://www.w3.org/2000/svg">
<metadata>Generated by IcoMoon</metadata>
<defs>
<font id="icomoon" horiz-adv-x="1024">
<font-face units-per-em="1024" ascent="960" descent="-64" />
<missing-glyph horiz-adv-x="1024" />
<glyph unicode="&#x20;" d="" horiz-adv-x="512" />
<glyph unicode="&#xe600;" d="M213.6-48.576c0.288 0.064 0.448 0.064-0.352 0.064-0.768 0-0.64-0.064-0.32-0.064-0.16-0.064-0.032-0.064 0.32-0.064s0.544 0 0.352 0.064zM1020-17.472c2.368-4.416 4-9.184 4-14.528 0-17.664-14.624-32-32.64-32s-32.672 14.336-32.672 32h-0.8c-44.864 201.28-227.328 352-445.888 352s-401.12-150.72-445.92-352h-0.832c0-17.664-14.656-32-32.64-32s-32.608 14.336-32.608 32c0 5.344 1.6 10.112 4 14.528 40.352 179.328 175.168 323.904 351.904 378.080-100.928 54.464-170.112 158.464-170.112 279.392 0 176.736 146.048 320 326.208 320 180.128 0 326.176-143.264 326.176-320 0-120.928-69.184-224.928-170.080-279.36 176.736-54.208 311.456-198.752 351.904-378.112v0zM772.928 640c0 141.376-116.832 256-260.928 256-144.16 0-260.96-114.624-260.96-256s116.832-255.968 260.96-255.968c144.096 0 260.928 114.592 260.928 255.968v0z" />
<glyph unicode="&#xe601;" d="M0.256 449.152c0 281.664 230.144 510.848 512.864 510.848 281.504 0 510.624-229.184 510.624-510.848 0-283.040-229.12-513.152-510.624-513.152-282.752 0-512.864 230.112-512.864 513.152z" />
<glyph unicode="&#xe602;" d="M355.68 217.28l229.664 231.712-229.536 229.568 55.392 55.328 284.48-284.576-284.352-287.072z" />
<glyph unicode="&#xe603;" d="M1024-64v1024h-1024z" />
<glyph unicode="&#xe604;" d="M640.896 714.144c-44.672-0.288-81.952-1.248-111.744-2.944v27.424c29.824-1.408 71.552-2.528 125.248-3.36 8.704 14.624 15.872 30.912 21.504 48.896 9.28-5.344 17.28-8.64 24.032-9.92s10.112-3.008 10.112-5.28-1.984-4.064-5.92-5.472-11.648-10.816-23.2-28.256c85.184 0 153.76 1.12 205.792 3.36v-27.392c-32.896 2.24-105.728 3.36-218.432 3.36-12.672-20.256-25.728-38.784-39.232-55.648v-100.352c0-25.024 1.408-51.584 4.224-79.68h-31.616c2.528 27.264 3.808 53.824 3.808 79.68v72.928c-21.376-23.328-43.040-42.72-64.928-58.176-6.464 10.976-13.92 18.56-22.336 22.784 47.808 25.888 88.704 65.216 122.688 118.048zM655.648 818.304h107.52c0 18.816-0.832 33.888-2.528 45.12 11.264-1.696 21.504-2.528 30.784-2.528 2.816 0 4.224-0.704 4.224-2.112s-0.832-2.656-2.528-3.808c-3.104-1.984-4.64-6.336-4.64-13.088v-23.616c42.432 0 77.856 1.12 106.24 3.36v-26.976c-28.416 2.24-63.808 3.36-106.24 3.36v-37.12h-25.28v37.184h-107.52v-35.424h-25.28v35.424c-42.752 0-78.272-1.12-106.688-3.36v26.976c28.416-2.24 63.936-3.36 106.688-3.36-0.576 21.344-1.408 36.672-2.528 45.984 11.264-1.696 21.504-2.528 30.784-2.528 2.816 0 4.224-0.928 4.224-2.752s-0.832-3.296-2.528-4.416c-3.104-1.696-4.672-6.048-4.672-13.088v-23.232zM787.232 603.296c41.6 0 78.016 1.408 109.216 4.224v-28.672c-30.080 2.816-66.496 4.224-109.216 4.224v-71.264c0-10.976-4.352-18.752-13.056-23.392s-25.312-7.104-49.76-7.36c-0.832 10.688-4.928 20.928-12.256 30.784 14.912-2.24 25.824-3.36 32.672-3.36 6.912 0 11.808 0.896 14.752 2.752 2.976 1.824 4.448 5.408 4.448 10.752v61.12c-49.472 0-88.288-1.408-116.384-4.224v28.672c33.44-2.816 72.256-4.224 116.384-4.224v18.976l51.040 36.256h-72.128c-26.4 0-48.352-0.96-65.76-2.944v25.664c23.584-1.696 52.672-2.528 87.296-2.528 34.56 0 67.872 0.832 99.904 2.528v-22.336c-9.248 0-17.568-2.688-24.864-8l-52.288-38.816v-8.832z" />
<glyph unicode="&#xe605;" d="M512 768c206.752 0 419.872-254.016 446.496-320-26.56-66.016-239.744-320-446.496-320-207.456 0-420.416 254.176-446.496 320 26.24 65.792 239.2 320 446.496 320zM512 832c-255.808 0-512-319.808-512-384 0-64.064 255.104-384 512-384 256.32 0 512 320.384 512 384 0 64-256.864 384-512 384v0zM512 608c-88.416 0-160-71.648-160-160 0-88.384 71.584-160 160-160 88.448 0 160 71.616 160 160 0 88.352-71.552 160-160 160zM512 352c-52.992 0-96 43.008-96 96 0 53.024 43.008 96 96 96s96-42.976 96-96c0-52.992-42.944-96-96-96z" />
<glyph unicode="&#xe606;" d="M512.032 896c247.040 0 448-200.96 448-448s-200.96-448-448-448c-247.104 0-448.032 200.96-448.032 448s201.056 448 448.032 448zM512.032 960c-282.848 0-512.032-229.216-512.032-512s229.184-512 512.064-512c282.752 0 512 229.216 512 512s-229.248 512-512.032 512v0zM304 448c0-44.192-35.808-80-80-80s-80 35.808-80 80c0 44.192 35.808 80 80 80s80-35.808 80-80zM592.032 448c0-44.192-35.808-80-80-80s-80 35.808-80 80c0 44.192 35.808 80 80 80s80-35.808 80-80zM880.064 448c0-44.192-35.808-80-80-80s-80 35.808-80 80c0 44.192 35.808 80 80 80s80-35.808 80-80z" />
<glyph unicode="&#xe607;" d="M512 960c-282.816 0-512-229.216-512-512s229.184-512 512.032-512c282.72 0 511.968 229.216 511.968 512s-229.248 512-512 512v0z" />
<glyph unicode="&#xe608;" d="M736.256 579.040c-23.616 0-42.88 19.232-42.88 42.88 0 24.064 18.848 42.912 42.88 42.912 23.648 0 42.88-19.264 42.88-42.912s-19.232-42.88-42.88-42.88zM736.256 653.216c-17.536 0-31.296-13.76-31.296-31.328 0-17.248 14.016-31.296 31.296-31.296 16.928 0 31.296 14.336 31.296 31.296-0.032 17.28-14.080 31.328-31.296 31.328z" />
<glyph unicode="&#xe609;" d="M637.728 579.040c-23.616 0-42.88 19.232-42.88 42.88s19.264 42.912 42.88 42.912c23.648 0 42.912-19.264 42.912-42.912s-19.264-42.88-42.912-42.88zM637.728 653.216c-17.216 0-31.264-14.048-31.264-31.328 0-16.96 14.272-31.296 31.264-31.296s31.328 14.336 31.328 31.296c0 17.28-14.048 31.328-31.328 31.328z" />
<glyph unicode="&#xe60a;" d="M704.96 621.92h-11.584c0 3.808-3.328 6.4-6.368 6.4-3.744 0-6.368-2.624-6.368-6.4h-11.552c0 10.080 7.872 17.984 17.952 17.984 9.856 0 17.92-8.064 17.92-17.984z" />
<glyph unicode="&#xe60b;" d="M743.232 162.752h-156.48v113.92l7.072-1.6c22.496-5.088 49.088-7.776 76.8-7.776 23.136 0 45.856 1.888 65.76 5.536l6.848 1.216v-111.296zM598.336 174.336h133.28v85.92c-41.76-6.656-93.696-5.888-133.28 2.016v-87.936z" />
<glyph unicode="&#xe60c;" d="M669.92 255.648v0c-38.528 0-74.272 4.992-100.704 14.048-2.56 0.896-4.16 3.424-3.872 6.144 8.352 72.448 34.4 175.392 82.656 247.232 1.472 2.144 4.256 3.072 6.688 2.272 15.456-5.152 35.296-6.144 52.8-3.264 1.408 0.256 2.784-0.032 3.968-0.736l2.88-1.76 11.456-8.416c1.504-1.12 2.4-2.848 2.368-4.736 0-1.216-0.416-2.432-1.152-3.36 19.616-12.096 69.024-46.4 60.672-81.952-6.080-27.808-14.496-42.496-19.040-50.368-0.992-1.76-2.112-3.744-2.336-4.416l11.072-89.312c0.352-2.656-1.216-5.184-3.744-6.080-26.688-9.888-63.52-15.296-103.712-15.296zM577.44 279.264c24.512-7.648 57.888-12 92.48-12v0c36.16 0 70.592 4.704 95.36 13.056l-10.464 85.824c-0.448 3.104 1.12 5.888 3.744 10.4 4.192 7.36 12.032 21.024 17.824 47.2 6.784 28.864-42.912 62.944-62.592 73.664-1.792 0.96-2.944 2.752-3.040 4.768-0.064 1.696 0.576 3.296 1.728 4.48l-5.152 3.712c-17.504-2.592-36.32-1.76-52.032 2.72-44.64-68.512-69.6-167.168-77.856-233.824z" />
<glyph unicode="&#xe60d;" d="M687.008 508.864c-62.656 0-113.568 50.688-113.568 113.024 0 62.656 50.912 113.664 113.568 113.664 62.304 0 112.992-50.976 112.992-113.664 0-62.304-50.688-113.024-112.992-113.024zM687.008 723.968c-56.256 0-102.016-45.76-102.016-102.048 0-55.936 45.76-101.44 102.016-101.44 55.904 0 101.376 45.504 101.376 101.44 0 56.256-45.472 102.048-101.376 102.048z" />
<glyph unicode="&#xe60e;" d="M596 388.832h-339.552c-17.6 0-32.448 14.88-32.448 32.512v223.168c0 17.6 14.848 32.48 32.448 32.48h334.368c2.016 0 3.904-1.056 4.928-2.784 1.056-1.728 1.12-3.904 0.224-5.664-7.2-13.728-10.976-29.888-10.976-46.624 0-43.648 28-82.464 69.696-96.544 1.728-0.576 3.040-1.92 3.616-3.648s0.352-3.616-0.672-5.088c-21.504-31.776-40.416-73.376-56.064-123.744-0.768-2.4-3.008-4.064-5.568-4.064zM256.448 665.408c-11.296 0-20.832-9.568-20.832-20.896v-223.168c0-11.328 9.536-20.864 20.832-20.864h335.328c14.784 46.464 32.352 85.6 52.256 116.544-42.528 17.504-70.56 58.752-70.56 104.896 0 15.296 2.848 30.144 8.32 43.488h-325.344z" />
<glyph unicode="&#xe60f;" d="M687.008 534.368c-10.56 0-20.192 3.552-28.64 10.624-2.496 2.048-2.784 5.696-0.736 8.16s5.696 2.784 8.128 0.736c6.4-5.344 13.376-7.936 21.248-7.936 7.648 0 14.944 2.752 20.448 7.776 2.368 2.144 6.048 1.984 8.192-0.416 2.112-2.368 1.984-6.016-0.416-8.192-7.68-6.912-17.664-10.752-28.224-10.752z" />
<glyph unicode="&#xe610;" d="M751.264 346.624c-5.696 0-11.392 4.096-17.44 8.416-8.032 5.568-13.28 7.488-17.472 9.056-2.016 0.768-3.776 1.408-5.28 2.176-15.68 8.832-1.248 38.016 9.248 59.328 1.92 3.872 3.456 7.008 4.128 8.8l0.64 1.984c2.368 7.424 3.040 9.408-0.896 14.432-1.984 2.528-1.568 6.144 0.96 8.16 2.496 1.952 6.176 1.504 8.128-0.96 7.744-9.856 5.504-16.928 2.88-25.12l-0.672-2.272c-0.864-2.24-2.56-5.792-4.736-10.144-18.048-36.672-15.936-42.944-14.176-43.936 0.928-0.48 2.304-0.928 3.904-1.504 4.544-1.728 10.784-4.032 19.136-9.792 4.32-3.104 9.728-7.008 11.68-7.008 0 0 0.032 0 0.032 0.032l3.872 10.688c1.216 2.976 4.608 4.448 7.52 3.264 3.008-1.216 4.48-4.608 3.264-7.552l-4.64-11.584c-2.784-4.576-5.824-5.824-7.904-6.176-0.736-0.224-1.44-0.288-2.176-0.288z" />
<glyph unicode="&#xe611;" d="M705.088 347.328c-3.84 1.088-9.184 4.16-14.4 7.136l-6.304 3.712c-7.392 4.608-18.528 11.488-12.672 26.944 0.32 0.64 11.104 23.424 14.464 32.896 4.96 12.768 9.888 18.72 16.384 20 8.224 1.6 15.456-5.024 23.936-13.856l-8.352-8.064c-2.912 3.040-10.432 11.008-13.344 10.528-0.288-0.064-3.232-0.96-7.776-12.672-3.488-9.856-14.176-32.48-14.656-33.408-2.016-5.472-0.32-7.296 8.096-12.544l6.016-3.52c3.936-2.24 9.312-5.376 11.808-6.048l-3.2-11.104z" />
<glyph unicode="&#xe612;" d="M708.32 343.744c-2.496 0-4.768 1.6-5.472 4.16-2.304 8.512 5.92 20.192 8.544 23.584 1.952 2.528 5.568 3.008 8.096 1.088s3.072-5.568 1.088-8.128c-3.776-4.992-6.944-11.584-6.496-13.504 0.64-3.072-1.248-6.272-4.288-7.008-0.512-0.128-0.992-0.192-1.472-0.192z" />
<glyph unicode="&#xe613;" d="M739.712 328.576c-2.208 0-4.352 1.28-5.312 3.456-1.28 2.912 0.064 6.336 3.008 7.616 5.536 2.432 5.824 11.456 5.824 11.52 0 3.232 2.592 5.792 5.76 5.792 3.104-0.096 5.856-2.56 5.856-5.792 0-0.672-0.192-16.64-12.736-22.144-0.8-0.352-1.568-0.448-2.4-0.448z" />
<glyph unicode="&#xe614;" d="M734.816 321.056c-5.632 0-11.744 1.696-19.008 5.152-21.568 10.784-17.216 27.008-17.024 27.68l5.6-1.6 5.632-1.44c-0.192-0.8-1.44-8.064 10.88-14.208 10.784-5.184 16.064-4.352 20.128-2.72l7.136 8.32c4.16-3.552 5.92-7.328 5.216-11.040-0.672-3.648-3.392-6.368-8.192-8.096-3.36-1.344-6.784-2.048-10.368-2.048z" />
<glyph unicode="&#xe615;" d="M500.96 552.928l23.2-12.736c1.728-1.152 2.304-3.488 1.152-5.216v0c-1.152-1.728-3.456-2.336-5.216-1.728l-22.592 13.312c-1.728 1.152-2.336 3.488-1.728 5.216v0c1.12 1.728 3.488 2.304 5.184 1.152v0z" />
<glyph unicode="&#xe616;" d="M521.472 530.688c-0.704 0-1.44 0.096-2.112 0.32l-23.040 13.536c-2.624 1.728-3.712 5.056-2.752 7.968l0.256 0.544c1.792 2.752 5.728 3.584 8.416 1.824l23.040-12.64c2.976-2.016 3.776-5.824 1.952-8.544-1.216-1.856-3.424-3.008-5.76-3.008zM497.92 550.72c-0.128-0.8 0.16-1.792 0.896-2.24l22.432-13.216c-0.128 0.096 0.064 0.064 0.256 0.064 0.768 0 1.536 0.352 1.92 0.896 0.48 0.704 0.096 1.6-0.544 2.016l-23.008 12.672c-1.024 0.672-1.504 0.32-1.952-0.192z" />
<glyph unicode="&#xe617;" d="M545.696 489.568l-3.584 3.616c-0.448 0.416-0.512 0.48-0.8 0.64-1.76 1.088-4.8 1.824-7.040 2.368-6.752 1.696-15.136 3.744-20.576 9.184-7.84 7.2-14.72 23.488-13.824 29.856-0.032 5.856 3.936 9.056 7.904 9.408-1.728 2.208-2.592 5.088-2.24 7.936 0.48 3.968 3.232 7.136 7.168 8.256 23.776 6.272 56.352-2.88 58.4-31.84l0.256-2.304c0.352-3.776 0.608-6.016 1.696-7.616l3.072-6.080-30.432-23.424zM512.928 528.448c1.856-5.12 5.184-11.424 8.768-14.72 3.296-3.296 10.272-5.024 15.328-6.272 3.808-0.928 6.784-1.664 9.024-2.912l15.392 11.84c-1.088 3.072-1.376 6.048-1.696 9.184l-0.256 2.4c-1.44 20.864-25.28 25.408-41.248 22.272 3.84-1.856 8.96-4.896 14.080-7.968 4.512-3.008 6.688-7.392 6.080-11.904-0.608-4.352-3.808-8.032-8.448-9.6l-3.104-0.512c-5.376 0-9.888 4.16-13.92 8.192z" />
<glyph unicode="&#xe618;" d="M593.568 414.464v0c-7.296 0-14.72 3.808-21.472 10.976-15.808 17.056-35.904 51.040-40.992 61.824-1.152 2.432-0.48 5.376 1.696 7.040l38.816 30.144c2.464 1.888 6.048 1.504 8.064-0.896l30.336-36.96c13.248 15.2 29.408 29.216 35.904 34.88 1.152 0.992 2.016 1.696 2.464 2.144 1.248 1.44 3.168 2.272 4.96 2.016 2.144-0.224 3.968-1.536 4.768-3.52 0.8-1.792 0.544-3.872-0.512-5.504v0c-0.064-0.064-0.096-0.128-0.128-0.224-16.96-25.184-31.904-55.52-44.448-90.112-0.224-0.576-0.512-1.088-0.864-1.568-6.496-8.448-13.728-10.24-18.592-10.24zM543.68 488.096c6.88-12.96 23.744-40.576 36.896-54.72 4.384-4.672 9.024-7.328 12.96-7.328 0 0 0 0 0.032 0 3.168 0 6.048 1.664 8.896 5.088 7.488 20.64 15.84 39.744 24.96 57.28-4.512-4.64-9.024-9.568-13.024-14.528-1.088-1.344-2.592-2.592-4.544-2.144-1.728 0-3.36 0.8-4.48 2.144l-31.168 37.952-30.528-23.744z" />
<glyph unicode="&#xe619;" d="M743.232 160.448h-156.48v5.792c0 23.36 19.008 42.336 42.272 42.336 15.328 0 28.704-8.416 36-20.864 7.328 12.48 20.928 20.864 36.48 20.864 22.976 0 41.728-18.976 41.728-42.336v-5.792zM671.328 172.032h59.776c-2.688 14.176-14.944 24.896-29.6 24.896-15.264 0-27.552-10.56-30.176-24.896zM598.848 172.032h59.808c-2.688 14.176-14.912 24.896-29.632 24.896-15.2 0-27.52-10.56-30.176-24.896z" />
<glyph unicode="&#xe61a;" d="M495.776 445.088h-223.104c-3.2 0-5.792 2.592-5.792 5.792s2.624 5.792 5.792 5.792h223.104c3.2 0 5.792-2.592 5.792-5.792s-2.592-5.792-5.792-5.792zM452.288 496.096h-179.616c-3.2 0-5.792 2.592-5.792 5.792s2.624 5.792 5.792 5.792h179.616c3.2 0 5.792-2.592 5.792-5.792s-2.592-5.792-5.792-5.792zM419.296 547.136h-146.624c-3.2 0-5.792 2.592-5.792 5.792s2.624 5.792 5.792 5.792h146.624c3.2 0 5.792-2.592 5.792-5.792s-2.624-5.792-5.792-5.792z" />
<glyph unicode="&#xe61b;" d="M348.576 392.352h11.584v-228.48h-11.584v228.48z" />
<glyph unicode="&#xe61c;" d="M592.576 160.448h-328c-3.2 0-5.792 2.56-5.792 5.792s2.592 5.824 5.792 5.824h328c3.2 0 5.792-2.592 5.792-5.824s-2.624-5.792-5.792-5.792z" />
<glyph unicode="&#xe61d;" d="M687.008 570.912c3.456 0 6.976 2.88 6.976 6.944s-3.488 6.944-6.976 6.944c-4.064 0-7.52-2.88-7.52-6.944s3.456-6.944 7.52-6.944v0z" />
<glyph unicode="&#xe61e;" d="M579.232 627.712h21.472v-11.616h-21.472v11.616z" />
<glyph unicode="&#xe61f;" d="M773.344 627.712h20.832v-11.616h-20.832v11.616z" />
<glyph unicode="&#xe620;" d="M512 960c-282.816 0-512-229.216-512-512s229.184-512 512.032-512c282.72 0 511.968 229.216 511.968 512s-229.248 512-512 512v0z" />
<glyph unicode="&#xe621;" d="M388.992 529.472c-43.456 0-78.784 35.328-78.784 78.784 0 42.336 34.528 76.96 78.592 78.848l5.152 0.224v-74.112h73.856v-4.96c0-43.456-35.328-78.784-78.816-78.784zM384.064 676.832c-36.256-4-64-33.216-64-68.576 0-37.984 30.912-68.896 68.928-68.896 36.352 0 66.208 28.288 68.736 63.968h-73.696v73.504z" />
<glyph unicode="&#xe622;" d="M467.808 617.824l-69.184 0.672v68.608h4.928c35.424 0 64.256-28.832 64.256-64.288v-4.992zM408.48 628.32l49.216-0.512c-2.368 26.016-23.168 46.816-49.216 49.184v-48.672z" />
<glyph unicode="&#xe623;" d="M290.144 307.744c-22.944 0-41.568 18.688-41.568 41.664 0 22.848 19.008 42.144 41.568 42.144 23.264 0 42.176-18.944 42.176-42.144 0-22.976-18.912-41.664-42.176-41.664zM290.144 381.664c-17.184 0-31.68-14.784-31.68-32.256 0-17.536 14.208-31.744 31.68-31.744 17.792 0 32.288 14.208 32.288 31.744 0 17.472-14.784 32.256-32.288 32.256z" />
<glyph unicode="&#xe624;" d="M337.248 160h-93.632c-10.912 0-19.488 8.576-19.488 19.456v93.696c0 10.944 8.576 19.488 19.488 19.488h93.632c10.912 0 19.488-8.576 19.488-19.488v-93.696c0-10.88-8.576-19.456-19.488-19.456zM243.616 282.752c-5.376 0-9.6-4.224-9.6-9.6v-93.696c0-5.344 4.224-9.568 9.6-9.568h93.632c5.376 0 9.6 4.224 9.6 9.568v93.696c0 5.376-4.192 9.6-9.6 9.6h-93.632z" />
<glyph unicode="&#xe625;" d="M511.712 307.744c-22.944 0-41.6 18.688-41.6 41.664 0 22.848 19.040 42.144 41.6 42.144 23.232 0 42.144-18.944 42.144-42.144 0.032-22.976-18.912-41.664-42.144-41.664zM511.712 381.664c-17.184 0-31.712-14.784-31.712-32.256 0-17.536 14.208-31.744 31.712-31.744 17.792 0 32.288 14.208 32.288 31.744 0 17.472-14.816 32.256-32.288 32.256z" />
<glyph unicode="&#xe626;" d="M558.816 160h-93.632c-10.912 0-19.488 8.576-19.488 19.456v93.696c0 10.944 8.576 19.488 19.488 19.488h93.632c10.944 0 19.488-8.576 19.488-19.488v-93.696c0-10.88-8.544-19.456-19.488-19.456zM465.184 282.752c-5.376 0-9.6-4.224-9.6-9.6v-93.696c0-5.344 4.224-9.568 9.6-9.568h93.632c5.376 0 9.632 4.224 9.632 9.568v93.696c0 5.376-4.256 9.6-9.632 9.6h-93.632z" />
<glyph unicode="&#xe627;" d="M733.248 307.744c-22.944 0-41.568 18.688-41.568 41.664 0 22.848 19.040 42.144 41.568 42.144 23.264 0 42.176-18.944 42.176-42.144 0-22.976-18.912-41.664-42.176-41.664zM733.248 381.664c-17.152 0-31.68-14.784-31.68-32.256 0-17.536 14.208-31.744 31.68-31.744 17.824 0 32.32 14.208 32.32 31.744 0 17.472-14.816 32.256-32.32 32.256z" />
<glyph unicode="&#xe628;" d="M780.384 160h-93.632c-10.944 0-19.488 8.576-19.488 19.456v93.696c0 10.944 8.576 19.488 19.488 19.488h93.632c10.944 0 19.488-8.576 19.488-19.488v-93.696c0-10.88-8.544-19.456-19.488-19.456zM686.752 282.752c-5.376 0-9.6-4.224-9.6-9.6v-93.696c0-5.344 4.224-9.568 9.6-9.568h93.632c5.376 0 9.6 4.224 9.6 9.568v93.696c0 5.376-4.224 9.6-9.6 9.6h-93.632z" />
<glyph unicode="&#xe629;" d="M640.224 553.888c-29.984 0-54.336 24.416-54.336 54.368 0 29.696 24.384 53.824 54.336 53.824 29.664 0 53.792-24.128 53.792-53.824 0-29.984-24.128-54.368-53.792-54.368zM640.224 652.224c-24.544 0-44.48-19.712-44.48-43.968 0-24.512 19.936-44.48 44.48-44.48 24.224 0 43.904 19.968 43.904 44.48 0 24.256-19.68 43.968-43.904 43.968z" />
<glyph unicode="&#xe62a;" d="M692.576 398.528h-104.672c-12 0-21.824 9.824-21.824 21.824v104.736c0 11.904 9.6 21.216 21.824 21.216h104.672c11.68 0 21.216-9.504 21.216-21.216v-104.736c0-11.776-9.728-21.824-21.216-21.824zM587.872 536.448c-6.784 0-11.936-4.864-11.936-11.328v-104.736c0-6.528 5.376-11.904 11.936-11.904h104.672c6.112 0 11.328 5.472 11.328 11.904v104.736c0 6.24-5.088 11.328-11.328 11.328h-104.672z" />
<glyph unicode="&#xe62b;" d="M744.32 455.552h-40.416v69.536c0 6.24-5.088 11.328-11.328 11.328h-104.672c-6.784 0-11.936-4.864-11.936-11.328v-69.536h-296.288c-10.272 0-18.912 8.672-18.912 18.912v242.624c0 10.24 8.64 18.912 18.912 18.912h464.64c10.24 0 18.912-8.672 18.912-18.912v-242.624c0-10.24-8.672-18.912-18.912-18.912zM713.792 465.472h30.528c4.8 0 9.024 4.224 9.024 8.992v242.624c0 4.8-4.224 9.024-9.024 9.024h-464.64c-4.8 0-9.024-4.224-9.024-9.024v-242.624c0-4.768 4.224-8.992 9.024-8.992h286.368v59.616c0 11.904 9.6 21.216 21.824 21.216h104.672c11.68 0 21.216-9.504 21.216-21.216v-59.616z" />
<glyph unicode="&#xe62c;" d="M566.368 497.44h-88.992c-5.632 0-9.6 3.936-9.6 9.6v29.696c0 5.632 3.968 9.6 9.6 9.6h113.312l0.672-4.608c0.384-4.608-4.064-5.28-6.176-5.664-4.96-0.768-7.712-1.408-9.248-1.888v-27.168c0-5.344-4.192-9.568-9.568-9.568zM477.376 536.448l0.288-29.408 88.384 0.32v29.088h-88.672z" />
<glyph unicode="&#xe62d;" d="M0.256 449.152c0 281.664 230.144 510.848 512.864 510.848 281.504 0 510.624-229.184 510.624-510.848 0-283.040-229.12-513.152-510.624-513.152-282.752 0-512.864 230.112-512.864 513.152zM78.496 449.152c0-239.808 194.944-434.912 434.624-434.912 238.4 0 432.384 195.104 432.384 434.912 0 238.528-193.984 432.608-432.384 432.608-239.68 0-434.624-194.112-434.624-432.608zM355.68 217.28l229.664 231.712-229.536 229.568 55.392 55.328 284.48-284.576-284.352-287.072z" />
<glyph unicode="&#xe62e;" d="M755.264 877.088c-68.736 0-137.536-26.24-190.016-78.72l-52.928-52.96-5.472 5.472h-0.032l-47.52 47.488c-52.544 52.48-121.376 78.72-190.208 78.72-68.864 0-137.728-26.24-190.24-78.72-105.088-104.928-105.088-275.104 0-380.032l380.48-380c13.088-13.056 30.176-19.392 47.328-19.392 1.92 0 3.808 0.096 5.728 0.256 1.888-0.16 3.808-0.256 5.696-0.256 17.088 0 34.176 6.336 47.232 19.392l380 379.968c104.928 104.992 104.928 275.104 0 380.032-52.512 52.512-121.28 78.752-190.048 78.752v0z" />
<glyph unicode="&#xe62f;" d="M755.264 813.088c54.688 0 106.080-21.312 144.768-59.968 79.808-79.808 79.808-209.696 0-289.536l-380-379.968c-0.192-0.192-0.64-0.64-2.336-0.64-0.032 0-0.064 0-0.096 0l-5.728 0.416-5.248-0.448c-1.408 0-1.888 0.48-2.080 0.672l-380.48 380c-38.72 38.656-60.064 90.048-60.064 144.736s21.344 106.080 60.032 144.736c38.72 38.688 90.24 60 145.024 60s106.272-21.312 144.992-60l98.24-98.048 50.752 50.592 47.424 47.488c38.72 38.656 90.112 59.968 144.8 59.968zM755.264 877.088c-68.736 0-137.536-26.24-190.016-78.72l-52.928-52.96-5.472 5.472h-0.032l-47.52 47.488c-52.544 52.48-121.376 78.72-190.208 78.72-68.864 0-137.728-26.24-190.24-78.72-105.088-104.928-105.088-275.104 0-380.032l380.48-380c13.088-13.056 30.176-19.392 47.328-19.392 1.92 0 3.808 0.096 5.728 0.256 1.888-0.16 3.808-0.256 5.696-0.256 17.088 0 34.176 6.336 47.232 19.392l380 379.968c104.928 104.992 104.928 275.104 0 380.032-52.512 52.512-121.28 78.752-190.048 78.752v0z" />
<glyph unicode="&#xe630;" d="M510.88-64c-281.504 0-510.624 230.144-510.624 513.152 0 281.664 229.12 510.848 510.624 510.848 282.72 0 512.864-229.184 512.864-510.848 0-283.008-230.112-513.152-512.864-513.152z" />
<glyph unicode="&#xe631;" d="M612.672 162.272l-284.352 287.040 284.48 284.576 55.392-55.328-229.536-229.568 229.664-231.712z" />
<glyph unicode="&#xe632;" d="M510.88-64c-281.504 0-510.624 230.144-510.624 513.152 0 281.664 229.12 510.848 510.624 510.848 282.72 0 512.864-229.184 512.864-510.848 0-283.008-230.112-513.152-512.864-513.152zM510.88 881.76c-238.432 0-432.384-194.080-432.384-432.608 0-239.808 193.952-434.912 432.384-434.912 239.68 0 434.624 195.104 434.624 434.912 0 238.496-194.944 432.608-434.624 432.608zM612.672 162.272l-284.352 287.040 284.48 284.576 55.392-55.328-229.536-229.568 229.664-231.712z" />
<glyph unicode="&#xe633;" d="M512 960c-282.816 0-512-229.216-512-512s229.184-512 512.032-512c282.72 0 511.968 229.216 511.968 512s-229.248 512-512 512v0z" />
<glyph unicode="&#xe634;" d="M410.816 668.16c-18.528 0-33.632 15.328-33.632 34.208 0.032 18.272 15.424 33.632 33.632 33.632 18.528 0 33.632-15.072 33.632-33.632 0-18.88-15.104-34.208-33.632-34.208zM410.816 724.416c-11.936 0-22.016-10.080-22.016-22.016 0-12.288 10.080-22.624 22.016-22.624 12.352 0 22.016 9.952 22.016 22.624 0.032 12.128-9.856 22.016-22.016 22.016z" />
<glyph unicode="&#xe635;" d="M640.448 646.080c-24.928 0-45.248 20.032-45.248 44.672 0 24.96 20.288 45.248 45.248 45.248 24.608 0 44.64-20.288 44.64-45.216-0.032-24.672-20.064-44.704-44.64-44.704zM640.448 724.416c-18.56 0-33.664-15.104-33.664-33.632 0-18.24 15.104-33.056 33.664-33.056 18.176 0 33.024 14.816 33.024 33.056 0 18.528-14.848 33.632-33.024 33.632z" />
<glyph unicode="&#xe636;" d="M760.448 500.512c-21.76 0-39.424 17.728-39.424 39.456s17.696 39.424 39.424 39.424 39.392-17.696 39.392-39.424-17.664-39.456-39.392-39.456zM760.448 567.776c-15.36 0-27.808-12.48-27.808-27.808s12.448-27.84 27.808-27.84c15.328 0 27.808 12.512 27.808 27.84s-12.512 27.808-27.808 27.808z" />
<glyph unicode="&#xe637;" d="M732.608 272.576c-27.328 0-50.4 23.104-50.4 50.464 0 27.808 22.592 50.464 50.4 50.464 28.288 0 50.432-22.176 50.432-50.464 0-27.84-22.624-50.464-50.432-50.464zM732.608 361.888c-21.408 0-38.848-17.408-38.848-38.848 0-21.088 17.824-38.88 38.848-38.88 21.408 0 38.848 17.44 38.848 38.88-0.032 21.76-17.088 38.848-38.848 38.848z" />
<glyph unicode="&#xe638;" d="M274.592 447.712c-28.288 0-50.432 22.176-50.432 50.496 0 27.808 22.624 50.432 50.432 50.432 27.328 0 50.432-23.136 50.432-50.432 0-27.84-22.624-50.496-50.432-50.496zM274.592 537.024c-21.408 0-38.816-17.408-38.816-38.816 0-21.824 17.056-38.912 38.816-38.912 21.408 0 38.848 17.44 38.848 38.912-0.032 21.056-17.792 38.816-38.848 38.816z" />
<glyph unicode="&#xe639;" d="M329.088 270.816c-21.728 0-39.424 17.696-39.424 39.424s17.696 39.456 39.424 39.456c21.76 0 39.424-17.728 39.424-39.456s-17.696-39.424-39.424-39.424zM329.088 338.080c-15.328 0-27.84-12.512-27.84-27.84s12.48-27.84 27.84-27.84 27.84 12.512 27.84 27.84-12.512 27.84-27.84 27.84z" />
<glyph unicode="&#xe63a;" d="M294.752 537.184l-10.176 5.536c2.144 3.968 53.312 97.184 105.696 141.472l7.488-8.864c-50.752-42.848-102.464-137.216-103.008-138.144z" />
<glyph unicode="&#xe63b;" d="M599.808 685.088c-85.6 17.6-159.936 11.552-160.672 11.488l-0.992 11.584c0.736 0.064 76.64 6.24 164-11.68l-2.336-11.392z" />
<glyph unicode="&#xe63c;" d="M737.344 565.632c-30.848 56.672-75.072 90.592-75.488 90.944l7.008 9.248c1.888-1.44 46.592-35.648 78.72-94.656l-10.24-5.536z" />
<glyph unicode="&#xe63d;" d="M753.952 363.488l-11.328 2.528c16.48 73.856 14.4 139.424 14.336 140.096l11.616 0.384c0-0.64 2.112-67.712-14.624-143.008z" />
<glyph unicode="&#xe63e;" d="M309.696 337.312c-25.344 39.456-35.264 112.352-35.648 115.424l11.488 1.536c0.096-0.704 10.016-73.408 33.92-110.72l-9.76-6.24z" />
<glyph unicode="&#xe63f;" d="M341.792 342.624l-11.52 1.408c22.432 188.64 68.192 331.424 68.672 332.864l11.040-3.584c-0.48-1.408-45.92-143.232-68.192-330.688z" />
<glyph unicode="&#xe640;" d="M314.56 519.616l-6.88 9.344c1.664 1.216 167.136 122.88 296.192 150.048l2.368-11.328c-126.56-26.688-290.048-146.848-291.68-148.064z" />
<glyph unicode="&#xe641;" d="M704.992 358.368c-100.352 171.648-276.928 317.184-278.688 318.624l7.328 8.96c1.792-1.472 179.968-148.256 281.376-321.728l-10.016-5.856z" />
<glyph unicode="&#xe642;" d="M413.792 349.664c-105.28 76.8-116.48 110.048-116.896 111.456l11.040 3.488c0.096-0.32 12.096-32.192 112.704-105.6l-6.848-9.344z" />
<glyph unicode="&#xe643;" d="M613.248 393.28l-7.136 9.152c111.104 85.888 127.712 113.184 128.384 114.304l10.112-5.696c-0.608-1.12-16.928-29.312-131.36-117.76z" />
<glyph unicode="&#xe644;" d="M318.912 506.080l-4.032 10.88c1.696 0.672 172.192 62.784 413.696 36.864l-1.216-11.52c-238.688 25.728-406.752-35.584-408.448-36.224z" />
<glyph unicode="&#xe645;" d="M523.328 354.336c-34.208 0-62.048 27.584-62.048 61.504 0 34.208 27.84 62.048 62.048 62.048 33.888 0 61.44-27.84 61.44-62.048-0.032-33.888-27.584-61.504-61.44-61.504zM523.328 466.272c-27.808 0-50.464-22.624-50.464-50.432 0-27.52 22.656-49.92 50.464-49.92 27.488 0 49.856 22.368 49.856 49.92-0.032 27.808-22.368 50.432-49.856 50.432z" />
<glyph unicode="&#xe646;" d="M578.976 160h-111.904c-18.24 0-33.632 15.392-33.632 33.664v111.968c0 18.88 15.104 34.208 33.632 34.208h111.904c18.848 0 34.208-15.328 34.208-34.208v-111.968c0-18.528-15.36-33.664-34.208-33.664zM467.072 328.256c-11.936 0-22.016-10.368-22.016-22.624v-111.968c0-11.936 10.080-22.016 22.016-22.016h111.904c12.256 0 22.592 10.080 22.592 22.016v111.968c0 12.48-10.112 22.624-22.592 22.624h-111.904z" />
<glyph unicode="&#xe647;" d="M512 960c-282.816 0-512-229.216-512-512s229.184-512 512.032-512c282.72 0 511.968 229.216 511.968 512s-229.248 512-512 512v0z" />
<glyph unicode="&#xe648;" d="M730.944 160h-437.888c-12.352 0-22.4 10.048-22.4 22.368v531.232c0 12.352 10.048 22.4 22.4 22.4h285.536c6.016 0 11.296-1.92 15.968-5.824l152.096-152.736c4.448-4.416 6.688-9.696 6.688-15.712v-379.328c0-12.352-10.016-22.4-22.4-22.4zM293.056 726.080c-6.88 0-12.512-5.632-12.512-12.512v-531.232c0-6.88 5.6-12.48 12.512-12.48h437.888c6.912 0 12.512 5.6 12.512 12.48v379.392c0 3.328-1.216 6.176-3.776 8.704l-151.776 152.48c-2.528 2.048-5.6 3.2-9.28 3.2h-285.568z" />
<glyph unicode="&#xe649;" d="M748.416 563.776h-144.8c-12.352 0-22.4 10.048-22.4 22.4v144.896h9.888v-144.864c0-6.912 5.632-12.544 12.544-12.544h144.8v-9.888z" />
<glyph unicode="&#xe64a;" d="M470.368 253.728c-16.768 0-31.712 11.584-35.584 27.584l-9.12 34.368-34.432 9.12c-18.912 4.608-30.976 25.152-26.208 44.896 5.28 19.2 26.656 31.616 45.664 26.304l30.944-8.576 84.384 84.992-8.032 31.040c-5.344 19.328 6.4 39.488 26.176 44.96 3.2 0.896 6.432 1.312 9.728 1.312 16.48 0 31.040-11.328 35.328-27.52l9.12-33.856 34.464-9.152c9.472-2.624 17.312-8.704 22.144-17.28 4.8-8.512 6.016-18.368 3.424-27.808-3.744-16.064-18.272-27.456-35.296-27.456v0c-3.296 0-6.592 0.48-9.792 1.312l-30.88 8.096-84.928-84.48 8.512-30.944c5.28-19.744-6.464-40.256-26.112-45.664-3.104-0.864-6.304-1.248-9.504-1.248zM401.152 387.424c-12.16 0-23.36-8.512-26.592-20.192-3.456-14.368 5.248-29.504 19.072-32.832l40.096-10.656 10.624-40.032c3.36-13.952 18.848-23.072 32.864-19.2 14.464 3.968 23.072 19.040 19.2 33.536l-10.016 36.512 93.024 92.48 36.448-9.44c14.752-4.128 29.632 4.928 32.896 19.040 1.984 7.072 1.056 14.272-2.464 20.512-3.488 6.176-9.248 10.656-16.128 12.576l-39.936 10.656-10.624 39.328c-3.808 14.272-18.848 23.2-32.864 19.264-14.496-4-23.136-18.784-19.232-32.864l9.44-36.608-92.416-93.024-36.512 10.048c-2.208 0.608-4.544 0.896-6.88 0.896z" />
</font>
</defs>
</svg>
